<svg width="112" height="20" viewBox="0 0 112 20" fill="none" xmlns="http://www.w3.org/2000/svg">
<g id="YourBanK">
<path d="M15.4372 0.833252L9.29198 11.6841V18.8323H6.39568V11.6841L0.250488 0.833252H3.54975L7.85642 8.80427L12.1379 0.833252H15.4372Z" fill="white"/>
<path d="M20.5919 19.1666C18.745 19.1666 17.1751 18.5152 15.8822 17.2124C14.5894 15.9096 13.943 14.3068 13.943 12.4041C13.943 10.5013 14.5894 8.89855 15.8822 7.59576C17.1751 6.29297 18.745 5.64158 20.5919 5.64158C22.4556 5.64158 24.0255 6.29297 25.3015 7.59576C26.5943 8.89855 27.2408 10.5013 27.2408 12.4041C27.2408 14.3068 26.5943 15.9096 25.3015 17.2124C24.0255 18.5152 22.4556 19.1666 20.5919 19.1666ZM17.7963 15.3096C18.5519 16.081 19.4837 16.4667 20.5919 16.4667C21.7 16.4667 22.6319 16.081 23.3874 15.3096C24.143 14.5383 24.5208 13.5697 24.5208 12.4041C24.5208 11.2384 24.143 10.2699 23.3874 9.49852C22.6319 8.72713 21.7 8.34143 20.5919 8.34143C19.4837 8.34143 18.5519 8.72713 17.7963 9.49852C17.0408 10.2699 16.663 11.2384 16.663 12.4041C16.663 13.5697 17.0408 14.5383 17.7963 15.3096Z" fill="white"/>
<path d="M38.1877 5.97584H40.9077V18.8323H38.1877V17.1867C37.365 18.5066 36.0637 19.1666 34.284 19.1666C32.84 19.1666 31.6731 18.6952 30.7832 17.7524C29.8933 16.8096 29.4484 15.5153 29.4484 13.8697V5.97584H32.1684V13.5869C32.1684 14.5468 32.4203 15.2839 32.924 15.7982C33.4277 16.3124 34.1161 16.5696 34.9891 16.5696C35.9462 16.5696 36.7185 16.2696 37.3062 15.6696C37.8938 15.0525 38.1877 14.1183 38.1877 12.8669V5.97584Z" fill="white"/>
<path d="M46.8083 8.13573C47.4967 6.54153 48.7895 5.74443 50.6868 5.74443V8.75284C49.6458 8.68427 48.7392 8.9414 47.9668 9.52423C47.1945 10.0899 46.8083 11.0327 46.8083 12.3527V18.8323H44.0883V5.97584H46.8083V8.13573Z" fill="white"/>
<path d="M63.2491 9.49852C64.0215 9.90992 64.6259 10.4756 65.0624 11.1956C65.499 11.9155 65.7173 12.7469 65.7173 13.6897C65.7173 15.1639 65.2052 16.3896 64.181 17.3667C63.1568 18.3438 61.9059 18.8323 60.4284 18.8323H52.8728V0.833252H59.8743C61.3182 0.833252 62.5355 1.31323 63.5261 2.27318C64.5336 3.21599 65.0373 4.39878 65.0373 5.82157C65.0373 7.38148 64.4412 8.60713 63.2491 9.49852ZM59.8743 3.61025H55.7691V8.34143H59.8743C60.5123 8.34143 61.0496 8.11859 61.4861 7.6729C61.9227 7.21006 62.141 6.64438 62.141 5.97584C62.141 5.30731 61.9227 4.75019 61.4861 4.3045C61.0496 3.84167 60.5123 3.61025 59.8743 3.61025ZM60.4284 16.0553C61.1 16.0553 61.6624 15.8153 62.1158 15.3354C62.5859 14.8382 62.821 14.2383 62.821 13.5355C62.821 12.8326 62.5859 12.2412 62.1158 11.7613C61.6624 11.2641 61.1 11.0156 60.4284 11.0156H55.7691V16.0553H60.4284Z" fill="white"/>
<path d="M78.1646 5.97584H80.8847V18.8323H78.1646V16.981C77.1404 18.4381 75.6713 19.1666 73.7572 19.1666C72.0279 19.1666 70.5503 18.5152 69.3246 17.2124C68.099 15.8925 67.4861 14.2897 67.4861 12.4041C67.4861 10.5013 68.099 8.89855 69.3246 7.59576C70.5503 6.29297 72.0279 5.64158 73.7572 5.64158C75.6713 5.64158 77.1404 6.36154 78.1646 7.80146V5.97584ZM71.3395 15.3611C72.095 16.1325 73.0437 16.5182 74.1854 16.5182C75.3271 16.5182 76.2758 16.1325 77.0313 15.3611C77.7869 14.5725 78.1646 13.5869 78.1646 12.4041C78.1646 11.2213 77.7869 10.2442 77.0313 9.4728C76.2758 8.68427 75.3271 8.29001 74.1854 8.29001C73.0437 8.29001 72.095 8.68427 71.3395 9.4728C70.5839 10.2442 70.2061 11.2213 70.2061 12.4041C70.2061 13.5869 70.5839 14.5725 71.3395 15.3611Z" fill="white"/>
<path d="M90.6787 5.64158C92.1227 5.64158 93.2896 6.11298 94.1795 7.05579C95.0694 7.99859 95.5143 9.29281 95.5143 10.9384V18.8323H92.7943V11.2213C92.7943 10.2613 92.5424 9.52423 92.0387 9.00997C91.535 8.49571 90.8466 8.23858 89.9736 8.23858C89.0165 8.23858 88.2442 8.54714 87.6565 9.16425C87.0689 9.76422 86.775 10.6899 86.775 11.9412V18.8323H84.055V5.97584H86.775V7.62147C87.5978 6.30154 88.899 5.64158 90.6787 5.64158Z" fill="white"/>
<path d="M111.917 18.8323H108.467L101.516 10.2699V18.8323H98.6194V0.833252H101.516V8.90712L108.215 0.833252H111.665L104.538 9.60137L111.917 18.8323Z" fill="white"/>
</g>
</svg>
